<?xml version="1.0" encoding="utf-8" standalone="no"?>
<!DOCTYPE svg PUBLIC "-//W3C//DTD SVG 1.1//EN"
  "http://www.w3.org/Graphics/SVG/1.1/DTD/svg11.dtd">
<svg height="648pt" version="1.1" viewBox="0 0 1152 648" width="1152pt" xmlns="http://www.w3.org/2000/svg" xmlns:xlink="http://www.w3.org/1999/xlink">
 <metadata>
  <rdf:RDF xmlns:cc="http://creativecommons.org/ns#" xmlns:dc="http://purl.org/dc/elements/1.1/" xmlns:rdf="http://www.w3.org/1999/02/22-rdf-syntax-ns#">
   <cc:Work>
    <dc:type rdf:resource="http://purl.org/dc/dcmitype/StillImage"/>
    <dc:date>2025-05-14T13:26:36.203397</dc:date>
    <dc:format>image/svg+xml</dc:format>
    <dc:creator>
     <cc:Agent>
      <dc:title>Matplotlib v3.4.3, https://matplotlib.org/</dc:title>
     </cc:Agent>
    </dc:creator>
   </cc:Work>
  </rdf:RDF>
 </metadata>
 <defs>
  <style type="text/css">*{stroke-linecap:butt;stroke-linejoin:round;}</style>
 </defs>
 <g id="figure_1">
  <g id="patch_1">
   <path d="M 0 648 
L 1152 648 
L 1152 0 
L 0 0 
z
" style="fill:#ffffff;"/>
  </g>
  <g id="axes_1">
   <g id="patch_2">
    <path d="M 144 576.72 
L 1036.8 576.72 
L 1036.8 77.76 
L 144 77.76 
z
" style="fill:#ffffff;"/>
   </g>
   <g id="PathCollection_1">
    <defs>
     <path d="M 0 3 
C 0.795609 3 1.55874 2.683901 2.12132 2.12132 
C 2.683901 1.55874 3 0.795609 3 0 
C 3 -0.795609 2.683901 -1.55874 2.12132 -2.12132 
C 1.55874 -2.683901 0.795609 -3 0 -3 
C -0.795609 -3 -1.55874 -2.683901 -2.12132 -2.12132 
C -2.683901 -1.55874 -3 -0.795609 -3 0 
C -3 0.795609 -2.683901 1.55874 -2.12132 2.12132 
C -1.55874 2.683901 -0.795609 3 0 3 
z
" id="m46287ad673" style="stroke:#0000ff;"/>
    </defs>
    <g clip-path="url(#pe6dd29e6de)">
     <use style="fill:#0000ff;stroke:#0000ff;" x="496.463705" xlink:href="#m46287ad673" y="189.38448"/>
    </g>
   </g>
   <g id="matplotlib.axis_1">
    <g id="xtick_1">
     <g id="line2d_1">
      <path clip-path="url(#pe6dd29e6de)" d="M 144 576.72 
L 144 77.76 
" style="fill:none;stroke:#000000;stroke-dasharray:0.3,0.495;stroke-dashoffset:0;stroke-width:0.3;"/>
     </g>
     <g id="line2d_2">
      <defs>
       <path d="M 0 0 
L 0 3.5 
" id="m4a1b61c0ba" style="stroke:#000000;stroke-width:0.8;"/>
      </defs>
      <g>
       <use style="stroke:#000000;stroke-width:0.8;" x="144" xlink:href="#m4a1b61c0ba" y="576.72"/>
      </g>
     </g>
     <g id="text_1">
      <!-- 0 -->
      <g transform="translate(140.81875 591.318438)scale(0.1 -0.1)">
       <defs>
        <path d="M 2034 4250 
Q 1547 4250 1301 3770 
Q 1056 3291 1056 2328 
Q 1056 1369 1301 889 
Q 1547 409 2034 409 
Q 2525 409 2770 889 
Q 3016 1369 3016 2328 
Q 3016 3291 2770 3770 
Q 2525 4250 2034 4250 
z
M 2034 4750 
Q 2819 4750 3233 4129 
Q 3647 3509 3647 2328 
Q 3647 1150 3233 529 
Q 2819 -91 2034 -91 
Q 1250 -91 836 529 
Q 422 1150 422 2328 
Q 422 3509 836 4129 
Q 1250 4750 2034 4750 
z
" id="DejaVuSans-30" transform="scale(0.015625)"/>
       </defs>
       <use xlink:href="#DejaVuSans-30"/>
      </g>
     </g>
    </g>
    <g id="xtick_2">
     <g id="line2d_3">
      <path clip-path="url(#pe6dd29e6de)" d="M 212.676923 576.72 
L 212.676923 77.76 
" style="fill:none;stroke:#000000;stroke-dasharray:0.3,0.495;stroke-dashoffset:0;stroke-width:0.3;"/>
     </g>
     <g id="line2d_4">
      <g>
       <use style="stroke:#000000;stroke-width:0.8;" x="212.676923" xlink:href="#m4a1b61c0ba" y="576.72"/>
      </g>
     </g>
     <g id="text_2">
      <!-- 1 -->
      <g transform="translate(209.495673 591.318438)scale(0.1 -0.1)">
       <defs>
        <path d="M 794 531 
L 1825 531 
L 1825 4091 
L 703 3866 
L 703 4441 
L 1819 4666 
L 2450 4666 
L 2450 531 
L 3481 531 
L 3481 0 
L 794 0 
L 794 531 
z
" id="DejaVuSans-31" transform="scale(0.015625)"/>
       </defs>
       <use xlink:href="#DejaVuSans-31"/>
      </g>
     </g>
    </g>
    <g id="xtick_3">
     <g id="line2d_5">
      <path clip-path="url(#pe6dd29e6de)" d="M 281.353846 576.72 
L 281.353846 77.76 
" style="fill:none;stroke:#000000;stroke-dasharray:0.3,0.495;stroke-dashoffset:0;stroke-width:0.3;"/>
     </g>
     <g id="line2d_6">
      <g>
       <use style="stroke:#000000;stroke-width:0.8;" x="281.353846" xlink:href="#m4a1b61c0ba" y="576.72"/>
      </g>
     </g>
     <g id="text_3">
      <!-- 2 -->
      <g transform="translate(278.172596 591.318438)scale(0.1 -0.1)">
       <defs>
        <path d="M 1228 531 
L 3431 531 
L 3431 0 
L 469 0 
L 469 531 
Q 828 903 1448 1529 
Q 2069 2156 2228 2338 
Q 2531 2678 2651 2914 
Q 2772 3150 2772 3378 
Q 2772 3750 2511 3984 
Q 2250 4219 1831 4219 
Q 1534 4219 1204 4116 
Q 875 4013 500 3803 
L 500 4441 
Q 881 4594 1212 4672 
Q 1544 4750 1819 4750 
Q 2544 4750 2975 4387 
Q 3406 4025 3406 3419 
Q 3406 3131 3298 2873 
Q 3191 2616 2906 2266 
Q 2828 2175 2409 1742 
Q 1991 1309 1228 531 
z
" id="DejaVuSans-32" transform="scale(0.015625)"/>
       </defs>
       <use xlink:href="#DejaVuSans-32"/>
      </g>
     </g>
    </g>
    <g id="xtick_4">
     <g id="line2d_7">
      <path clip-path="url(#pe6dd29e6de)" d="M 350.030769 576.72 
L 350.030769 77.76 
" style="fill:none;stroke:#000000;stroke-dasharray:0.3,0.495;stroke-dashoffset:0;stroke-width:0.3;"/>
     </g>
     <g id="line2d_8">
      <g>
       <use style="stroke:#000000;stroke-width:0.8;" x="350.030769" xlink:href="#m4a1b61c0ba" y="576.72"/>
      </g>
     </g>
     <g id="text_4">
      <!-- 3 -->
      <g transform="translate(346.849519 591.318438)scale(0.1 -0.1)">
       <defs>
        <path d="M 2597 2516 
Q 3050 2419 3304 2112 
Q 3559 1806 3559 1356 
Q 3559 666 3084 287 
Q 2609 -91 1734 -91 
Q 1441 -91 1130 -33 
Q 819 25 488 141 
L 488 750 
Q 750 597 1062 519 
Q 1375 441 1716 441 
Q 2309 441 2620 675 
Q 2931 909 2931 1356 
Q 2931 1769 2642 2001 
Q 2353 2234 1838 2234 
L 1294 2234 
L 1294 2753 
L 1863 2753 
Q 2328 2753 2575 2939 
Q 2822 3125 2822 3475 
Q 2822 3834 2567 4026 
Q 2313 4219 1838 4219 
Q 1578 4219 1281 4162 
Q 984 4106 628 3988 
L 628 4550 
Q 988 4650 1302 4700 
Q 1616 4750 1894 4750 
Q 2613 4750 3031 4423 
Q 3450 4097 3450 3541 
Q 3450 3153 3228 2886 
Q 3006 2619 2597 2516 
z
" id="DejaVuSans-33" transform="scale(0.015625)"/>
       </defs>
       <use xlink:href="#DejaVuSans-33"/>
      </g>
     </g>
    </g>
    <g id="xtick_5">
     <g id="line2d_9">
      <path clip-path="url(#pe6dd29e6de)" d="M 418.707692 576.72 
L 418.707692 77.76 
" style="fill:none;stroke:#000000;stroke-dasharray:0.3,0.495;stroke-dashoffset:0;stroke-width:0.3;"/>
     </g>
     <g id="line2d_10">
      <g>
       <use style="stroke:#000000;stroke-width:0.8;" x="418.707692" xlink:href="#m4a1b61c0ba" y="576.72"/>
      </g>
     </g>
     <g id="text_5">
      <!-- 4 -->
      <g transform="translate(415.526442 591.318438)scale(0.1 -0.1)">
       <defs>
        <path d="M 2419 4116 
L 825 1625 
L 2419 1625 
L 2419 4116 
z
M 2253 4666 
L 3047 4666 
L 3047 1625 
L 3713 1625 
L 3713 1100 
L 3047 1100 
L 3047 0 
L 2419 0 
L 2419 1100 
L 313 1100 
L 313 1709 
L 2253 4666 
z
" id="DejaVuSans-34" transform="scale(0.015625)"/>
       </defs>
       <use xlink:href="#DejaVuSans-34"/>
      </g>
     </g>
    </g>
    <g id="xtick_6">
     <g id="line2d_11">
      <path clip-path="url(#pe6dd29e6de)" d="M 487.384615 576.72 
L 487.384615 77.76 
" style="fill:none;stroke:#000000;stroke-dasharray:0.3,0.495;stroke-dashoffset:0;stroke-width:0.3;"/>
     </g>
     <g id="line2d_12">
      <g>
       <use style="stroke:#000000;stroke-width:0.8;" x="487.384615" xlink:href="#m4a1b61c0ba" y="576.72"/>
      </g>
     </g>
     <g id="text_6">
      <!-- 5 -->
      <g transform="translate(484.203365 591.318438)scale(0.1 -0.1)">
       <defs>
        <path d="M 691 4666 
L 3169 4666 
L 3169 4134 
L 1269 4134 
L 1269 2991 
Q 1406 3038 1543 3061 
Q 1681 3084 1819 3084 
Q 2600 3084 3056 2656 
Q 3513 2228 3513 1497 
Q 3513 744 3044 326 
Q 2575 -91 1722 -91 
Q 1428 -91 1123 -41 
Q 819 9 494 109 
L 494 744 
Q 775 591 1075 516 
Q 1375 441 1709 441 
Q 2250 441 2565 725 
Q 2881 1009 2881 1497 
Q 2881 1984 2565 2268 
Q 2250 2553 1709 2553 
Q 1456 2553 1204 2497 
Q 953 2441 691 2322 
L 691 4666 
z
" id="DejaVuSans-35" transform="scale(0.015625)"/>
       </defs>
       <use xlink:href="#DejaVuSans-35"/>
      </g>
     </g>
    </g>
    <g id="xtick_7">
     <g id="line2d_13">
      <path clip-path="url(#pe6dd29e6de)" d="M 556.061538 576.72 
L 556.061538 77.76 
" style="fill:none;stroke:#000000;stroke-dasharray:0.3,0.495;stroke-dashoffset:0;stroke-width:0.3;"/>
     </g>
     <g id="line2d_14">
      <g>
       <use style="stroke:#000000;stroke-width:0.8;" x="556.061538" xlink:href="#m4a1b61c0ba" y="576.72"/>
      </g>
     </g>
     <g id="text_7">
      <!-- 6 -->
      <g transform="translate(552.880288 591.318438)scale(0.1 -0.1)">
       <defs>
        <path d="M 2113 2584 
Q 1688 2584 1439 2293 
Q 1191 2003 1191 1497 
Q 1191 994 1439 701 
Q 1688 409 2113 409 
Q 2538 409 2786 701 
Q 3034 994 3034 1497 
Q 3034 2003 2786 2293 
Q 2538 2584 2113 2584 
z
M 3366 4563 
L 3366 3988 
Q 3128 4100 2886 4159 
Q 2644 4219 2406 4219 
Q 1781 4219 1451 3797 
Q 1122 3375 1075 2522 
Q 1259 2794 1537 2939 
Q 1816 3084 2150 3084 
Q 2853 3084 3261 2657 
Q 3669 2231 3669 1497 
Q 3669 778 3244 343 
Q 2819 -91 2113 -91 
Q 1303 -91 875 529 
Q 447 1150 447 2328 
Q 447 3434 972 4092 
Q 1497 4750 2381 4750 
Q 2619 4750 2861 4703 
Q 3103 4656 3366 4563 
z
" id="DejaVuSans-36" transform="scale(0.015625)"/>
       </defs>
       <use xlink:href="#DejaVuSans-36"/>
      </g>
     </g>
    </g>
    <g id="xtick_8">
     <g id="line2d_15">
      <path clip-path="url(#pe6dd29e6de)" d="M 624.738462 576.72 
L 624.738462 77.76 
" style="fill:none;stroke:#000000;stroke-dasharray:0.3,0.495;stroke-dashoffset:0;stroke-width:0.3;"/>
     </g>
     <g id="line2d_16">
      <g>
       <use style="stroke:#000000;stroke-width:0.8;" x="624.738462" xlink:href="#m4a1b61c0ba" y="576.72"/>
      </g>
     </g>
     <g id="text_8">
      <!-- 7 -->
      <g transform="translate(621.557212 591.318438)scale(0.1 -0.1)">
       <defs>
        <path d="M 525 4666 
L 3525 4666 
L 3525 4397 
L 1831 0 
L 1172 0 
L 2766 4134 
L 525 4134 
L 525 4666 
z
" id="DejaVuSans-37" transform="scale(0.015625)"/>
       </defs>
       <use xlink:href="#DejaVuSans-37"/>
      </g>
     </g>
    </g>
    <g id="xtick_9">
     <g id="line2d_17">
      <path clip-path="url(#pe6dd29e6de)" d="M 693.415385 576.72 
L 693.415385 77.76 
" style="fill:none;stroke:#000000;stroke-dasharray:0.3,0.495;stroke-dashoffset:0;stroke-width:0.3;"/>
     </g>
     <g id="line2d_18">
      <g>
       <use style="stroke:#000000;stroke-width:0.8;" x="693.415385" xlink:href="#m4a1b61c0ba" y="576.72"/>
      </g>
     </g>
     <g id="text_9">
      <!-- 8 -->
      <g transform="translate(690.234135 591.318438)scale(0.1 -0.1)">
       <defs>
        <path d="M 2034 2216 
Q 1584 2216 1326 1975 
Q 1069 1734 1069 1313 
Q 1069 891 1326 650 
Q 1584 409 2034 409 
Q 2484 409 2743 651 
Q 3003 894 3003 1313 
Q 3003 1734 2745 1975 
Q 2488 2216 2034 2216 
z
M 1403 2484 
Q 997 2584 770 2862 
Q 544 3141 544 3541 
Q 544 4100 942 4425 
Q 1341 4750 2034 4750 
Q 2731 4750 3128 4425 
Q 3525 4100 3525 3541 
Q 3525 3141 3298 2862 
Q 3072 2584 2669 2484 
Q 3125 2378 3379 2068 
Q 3634 1759 3634 1313 
Q 3634 634 3220 271 
Q 2806 -91 2034 -91 
Q 1263 -91 848 271 
Q 434 634 434 1313 
Q 434 1759 690 2068 
Q 947 2378 1403 2484 
z
M 1172 3481 
Q 1172 3119 1398 2916 
Q 1625 2713 2034 2713 
Q 2441 2713 2670 2916 
Q 2900 3119 2900 3481 
Q 2900 3844 2670 4047 
Q 2441 4250 2034 4250 
Q 1625 4250 1398 4047 
Q 1172 3844 1172 3481 
z
" id="DejaVuSans-38" transform="scale(0.015625)"/>
       </defs>
       <use xlink:href="#DejaVuSans-38"/>
      </g>
     </g>
    </g>
    <g id="xtick_10">
     <g id="line2d_19">
      <path clip-path="url(#pe6dd29e6de)" d="M 762.092308 576.72 
L 762.092308 77.76 
" style="fill:none;stroke:#000000;stroke-dasharray:0.3,0.495;stroke-dashoffset:0;stroke-width:0.3;"/>
     </g>
     <g id="line2d_20">
      <g>
       <use style="stroke:#000000;stroke-width:0.8;" x="762.092308" xlink:href="#m4a1b61c0ba" y="576.72"/>
      </g>
     </g>
     <g id="text_10">
      <!-- 9 -->
      <g transform="translate(758.911058 591.318438)scale(0.1 -0.1)">
       <defs>
        <path d="M 703 97 
L 703 672 
Q 941 559 1184 500 
Q 1428 441 1663 441 
Q 2288 441 2617 861 
Q 2947 1281 2994 2138 
Q 2813 1869 2534 1725 
Q 2256 1581 1919 1581 
Q 1219 1581 811 2004 
Q 403 2428 403 3163 
Q 403 3881 828 4315 
Q 1253 4750 1959 4750 
Q 2769 4750 3195 4129 
Q 3622 3509 3622 2328 
Q 3622 1225 3098 567 
Q 2575 -91 1691 -91 
Q 1453 -91 1209 -44 
Q 966 3 703 97 
z
M 1959 2075 
Q 2384 2075 2632 2365 
Q 2881 2656 2881 3163 
Q 2881 3666 2632 3958 
Q 2384 4250 1959 4250 
Q 1534 4250 1286 3958 
Q 1038 3666 1038 3163 
Q 1038 2656 1286 2365 
Q 1534 2075 1959 2075 
z
" id="DejaVuSans-39" transform="scale(0.015625)"/>
       </defs>
       <use xlink:href="#DejaVuSans-39"/>
      </g>
     </g>
    </g>
    <g id="xtick_11">
     <g id="line2d_21">
      <path clip-path="url(#pe6dd29e6de)" d="M 830.769231 576.72 
L 830.769231 77.76 
" style="fill:none;stroke:#000000;stroke-dasharray:0.3,0.495;stroke-dashoffset:0;stroke-width:0.3;"/>
     </g>
     <g id="line2d_22">
      <g>
       <use style="stroke:#000000;stroke-width:0.8;" x="830.769231" xlink:href="#m4a1b61c0ba" y="576.72"/>
      </g>
     </g>
     <g id="text_11">
      <!-- 10 -->
      <g transform="translate(824.406731 591.318438)scale(0.1 -0.1)">
       <use xlink:href="#DejaVuSans-31"/>
       <use x="63.623047" xlink:href="#DejaVuSans-30"/>
      </g>
     </g>
    </g>
    <g id="xtick_12">
     <g id="line2d_23">
      <path clip-path="url(#pe6dd29e6de)" d="M 899.446154 576.72 
L 899.446154 77.76 
" style="fill:none;stroke:#000000;stroke-dasharray:0.3,0.495;stroke-dashoffset:0;stroke-width:0.3;"/>
     </g>
     <g id="line2d_24">
      <g>
       <use style="stroke:#000000;stroke-width:0.8;" x="899.446154" xlink:href="#m4a1b61c0ba" y="576.72"/>
      </g>
     </g>
     <g id="text_12">
      <!-- 11 -->
      <g transform="translate(893.083654 591.318438)scale(0.1 -0.1)">
       <use xlink:href="#DejaVuSans-31"/>
       <use x="63.623047" xlink:href="#DejaVuSans-31"/>
      </g>
     </g>
    </g>
    <g id="xtick_13">
     <g id="line2d_25">
      <path clip-path="url(#pe6dd29e6de)" d="M 968.123077 576.72 
L 968.123077 77.76 
" style="fill:none;stroke:#000000;stroke-dasharray:0.3,0.495;stroke-dashoffset:0;stroke-width:0.3;"/>
     </g>
     <g id="line2d_26">
      <g>
       <use style="stroke:#000000;stroke-width:0.8;" x="968.123077" xlink:href="#m4a1b61c0ba" y="576.72"/>
      </g>
     </g>
     <g id="text_13">
      <!-- 12 -->
      <g transform="translate(961.760577 591.318438)scale(0.1 -0.1)">
       <use xlink:href="#DejaVuSans-31"/>
       <use x="63.623047" xlink:href="#DejaVuSans-32"/>
      </g>
     </g>
    </g>
    <g id="xtick_14">
     <g id="line2d_27">
      <path clip-path="url(#pe6dd29e6de)" d="M 1036.8 576.72 
L 1036.8 77.76 
" style="fill:none;stroke:#000000;stroke-dasharray:0.3,0.495;stroke-dashoffset:0;stroke-width:0.3;"/>
     </g>
     <g id="line2d_28">
      <g>
       <use style="stroke:#000000;stroke-width:0.8;" x="1036.8" xlink:href="#m4a1b61c0ba" y="576.72"/>
      </g>
     </g>
     <g id="text_14">
      <!-- 13 -->
      <g transform="translate(1030.4375 591.318438)scale(0.1 -0.1)">
       <use xlink:href="#DejaVuSans-31"/>
       <use x="63.623047" xlink:href="#DejaVuSans-33"/>
      </g>
     </g>
    </g>
    <g id="xtick_15">
     <g id="line2d_29">
      <path clip-path="url(#pe6dd29e6de)" d="M 178.338462 576.72 
L 178.338462 77.76 
" style="fill:none;stroke:#000000;stroke-dasharray:0.3,0.495;stroke-dashoffset:0;stroke-width:0.3;"/>
     </g>
     <g id="line2d_30">
      <defs>
       <path d="M 0 0 
L 0 2 
" id="m0ce700aa56" style="stroke:#000000;stroke-width:0.6;"/>
      </defs>
      <g>
       <use style="stroke:#000000;stroke-width:0.6;" x="178.338462" xlink:href="#m0ce700aa56" y="576.72"/>
      </g>
     </g>
    </g>
    <g id="xtick_16">
     <g id="line2d_31">
      <path clip-path="url(#pe6dd29e6de)" d="M 247.015385 576.72 
L 247.015385 77.76 
" style="fill:none;stroke:#000000;stroke-dasharray:0.3,0.495;stroke-dashoffset:0;stroke-width:0.3;"/>
     </g>
     <g id="line2d_32">
      <g>
       <use style="stroke:#000000;stroke-width:0.6;" x="247.015385" xlink:href="#m0ce700aa56" y="576.72"/>
      </g>
     </g>
    </g>
    <g id="xtick_17">
     <g id="line2d_33">
      <path clip-path="url(#pe6dd29e6de)" d="M 315.692308 576.72 
L 315.692308 77.76 
" style="fill:none;stroke:#000000;stroke-dasharray:0.3,0.495;stroke-dashoffset:0;stroke-width:0.3;"/>
     </g>
     <g id="line2d_34">
      <g>
       <use style="stroke:#000000;stroke-width:0.6;" x="315.692308" xlink:href="#m0ce700aa56" y="576.72"/>
      </g>
     </g>
    </g>
    <g id="xtick_18">
     <g id="line2d_35">
      <path clip-path="url(#pe6dd29e6de)" d="M 384.369231 576.72 
L 384.369231 77.76 
" style="fill:none;stroke:#000000;stroke-dasharray:0.3,0.495;stroke-dashoffset:0;stroke-width:0.3;"/>
     </g>
     <g id="line2d_36">
      <g>
       <use style="stroke:#000000;stroke-width:0.6;" x="384.369231" xlink:href="#m0ce700aa56" y="576.72"/>
      </g>
     </g>
    </g>
    <g id="xtick_19">
     <g id="line2d_37">
      <path clip-path="url(#pe6dd29e6de)" d="M 453.046154 576.72 
L 453.046154 77.76 
" style="fill:none;stroke:#000000;stroke-dasharray:0.3,0.495;stroke-dashoffset:0;stroke-width:0.3;"/>
     </g>
     <g id="line2d_38">
      <g>
       <use style="stroke:#000000;stroke-width:0.6;" x="453.046154" xlink:href="#m0ce700aa56" y="576.72"/>
      </g>
     </g>
    </g>
    <g id="xtick_20">
     <g id="line2d_39">
      <path clip-path="url(#pe6dd29e6de)" d="M 521.723077 576.72 
L 521.723077 77.76 
" style="fill:none;stroke:#000000;stroke-dasharray:0.3,0.495;stroke-dashoffset:0;stroke-width:0.3;"/>
     </g>
     <g id="line2d_40">
      <g>
       <use style="stroke:#000000;stroke-width:0.6;" x="521.723077" xlink:href="#m0ce700aa56" y="576.72"/>
      </g>
     </g>
    </g>
    <g id="xtick_21">
     <g id="line2d_41">
      <path clip-path="url(#pe6dd29e6de)" d="M 590.4 576.72 
L 590.4 77.76 
" style="fill:none;stroke:#000000;stroke-dasharray:0.3,0.495;stroke-dashoffset:0;stroke-width:0.3;"/>
     </g>
     <g id="line2d_42">
      <g>
       <use style="stroke:#000000;stroke-width:0.6;" x="590.4" xlink:href="#m0ce700aa56" y="576.72"/>
      </g>
     </g>
    </g>
    <g id="xtick_22">
     <g id="line2d_43">
      <path clip-path="url(#pe6dd29e6de)" d="M 659.076923 576.72 
L 659.076923 77.76 
" style="fill:none;stroke:#000000;stroke-dasharray:0.3,0.495;stroke-dashoffset:0;stroke-width:0.3;"/>
     </g>
     <g id="line2d_44">
      <g>
       <use style="stroke:#000000;stroke-width:0.6;" x="659.076923" xlink:href="#m0ce700aa56" y="576.72"/>
      </g>
     </g>
    </g>
    <g id="xtick_23">
     <g id="line2d_45">
      <path clip-path="url(#pe6dd29e6de)" d="M 727.753846 576.72 
L 727.753846 77.76 
" style="fill:none;stroke:#000000;stroke-dasharray:0.3,0.495;stroke-dashoffset:0;stroke-width:0.3;"/>
     </g>
     <g id="line2d_46">
      <g>
       <use style="stroke:#000000;stroke-width:0.6;" x="727.753846" xlink:href="#m0ce700aa56" y="576.72"/>
      </g>
     </g>
    </g>
    <g id="xtick_24">
     <g id="line2d_47">
      <path clip-path="url(#pe6dd29e6de)" d="M 796.430769 576.72 
L 796.430769 77.76 
" style="fill:none;stroke:#000000;stroke-dasharray:0.3,0.495;stroke-dashoffset:0;stroke-width:0.3;"/>
     </g>
     <g id="line2d_48">
      <g>
       <use style="stroke:#000000;stroke-width:0.6;" x="796.430769" xlink:href="#m0ce700aa56" y="576.72"/>
      </g>
     </g>
    </g>
    <g id="xtick_25">
     <g id="line2d_49">
      <path clip-path="url(#pe6dd29e6de)" d="M 865.107692 576.72 
L 865.107692 77.76 
" style="fill:none;stroke:#000000;stroke-dasharray:0.3,0.495;stroke-dashoffset:0;stroke-width:0.3;"/>
     </g>
     <g id="line2d_50">
      <g>
       <use style="stroke:#000000;stroke-width:0.6;" x="865.107692" xlink:href="#m0ce700aa56" y="576.72"/>
      </g>
     </g>
    </g>
    <g id="xtick_26">
     <g id="line2d_51">
      <path clip-path="url(#pe6dd29e6de)" d="M 933.784615 576.72 
L 933.784615 77.76 
" style="fill:none;stroke:#000000;stroke-dasharray:0.3,0.495;stroke-dashoffset:0;stroke-width:0.3;"/>
     </g>
     <g id="line2d_52">
      <g>
       <use style="stroke:#000000;stroke-width:0.6;" x="933.784615" xlink:href="#m0ce700aa56" y="576.72"/>
      </g>
     </g>
    </g>
    <g id="xtick_27">
     <g id="line2d_53">
      <path clip-path="url(#pe6dd29e6de)" d="M 1002.461538 576.72 
L 1002.461538 77.76 
" style="fill:none;stroke:#000000;stroke-dasharray:0.3,0.495;stroke-dashoffset:0;stroke-width:0.3;"/>
     </g>
     <g id="line2d_54">
      <g>
       <use style="stroke:#000000;stroke-width:0.6;" x="1002.461538" xlink:href="#m0ce700aa56" y="576.72"/>
      </g>
     </g>
    </g>
    <g id="text_15">
     <!-- Время, с -->
     <g transform="translate(559.056406 608.035938)scale(0.14 -0.14)">
      <defs>
       <path d="M 1259 2228 
L 1259 519 
L 2272 519 
Q 2781 519 3026 730 
Q 3272 941 3272 1375 
Q 3272 1813 3026 2020 
Q 2781 2228 2272 2228 
L 1259 2228 
z
M 1259 4147 
L 1259 2741 
L 2194 2741 
Q 2656 2741 2882 2914 
Q 3109 3088 3109 3444 
Q 3109 3797 2882 3972 
Q 2656 4147 2194 4147 
L 1259 4147 
z
M 628 4666 
L 2241 4666 
Q 2963 4666 3353 4366 
Q 3744 4066 3744 3513 
Q 3744 3084 3544 2831 
Q 3344 2578 2956 2516 
Q 3422 2416 3680 2098 
Q 3938 1781 3938 1306 
Q 3938 681 3513 340 
Q 3088 0 2303 0 
L 628 0 
L 628 4666 
z
" id="DejaVuSans-412" transform="scale(0.015625)"/>
       <path d="M 1159 525 
L 1159 -1331 
L 581 -1331 
L 581 3500 
L 1159 3500 
L 1159 2969 
Q 1341 3281 1617 3432 
Q 1894 3584 2278 3584 
Q 2916 3584 3314 3078 
Q 3713 2572 3713 1747 
Q 3713 922 3314 415 
Q 2916 -91 2278 -91 
Q 1894 -91 1617 61 
Q 1341 213 1159 525 
z
M 3116 1747 
Q 3116 2381 2855 2742 
Q 2594 3103 2138 3103 
Q 1681 3103 1420 2742 
Q 1159 2381 1159 1747 
Q 1159 1113 1420 752 
Q 1681 391 2138 391 
Q 2594 391 2855 752 
Q 3116 1113 3116 1747 
z
" id="DejaVuSans-440" transform="scale(0.015625)"/>
       <path d="M 3597 1894 
L 3597 1613 
L 953 1613 
Q 991 1019 1311 708 
Q 1631 397 2203 397 
Q 2534 397 2845 478 
Q 3156 559 3463 722 
L 3463 178 
Q 3153 47 2828 -22 
Q 2503 -91 2169 -91 
Q 1331 -91 842 396 
Q 353 884 353 1716 
Q 353 2575 817 3079 
Q 1281 3584 2069 3584 
Q 2775 3584 3186 3129 
Q 3597 2675 3597 1894 
z
M 3022 2063 
Q 3016 2534 2758 2815 
Q 2500 3097 2075 3097 
Q 1594 3097 1305 2825 
Q 1016 2553 972 2059 
L 3022 2063 
z
" id="DejaVuSans-435" transform="scale(0.015625)"/>
       <path d="M 581 3500 
L 1422 3500 
L 2416 1156 
L 3413 3500 
L 4247 3500 
L 4247 0 
L 3669 0 
L 3669 2950 
L 2703 672 
L 2128 672 
L 1159 2950 
L 1159 0 
L 581 0 
L 581 3500 
z
" id="DejaVuSans-43c" transform="scale(0.015625)"/>
       <path d="M 1181 2491 
Q 1181 2231 1381 2084 
Q 1581 1938 1953 1938 
L 2728 1938 
L 2728 3041 
L 1953 3041 
Q 1581 3041 1381 2897 
Q 1181 2753 1181 2491 
z
M 363 0 
L 1431 1534 
Q 1069 1616 828 1830 
Q 588 2044 588 2491 
Q 588 2997 923 3248 
Q 1259 3500 1938 3500 
L 3306 3500 
L 3306 0 
L 2728 0 
L 2728 1478 
L 2013 1478 
L 981 0 
L 363 0 
z
" id="DejaVuSans-44f" transform="scale(0.015625)"/>
       <path d="M 750 794 
L 1409 794 
L 1409 256 
L 897 -744 
L 494 -744 
L 750 256 
L 750 794 
z
" id="DejaVuSans-2c" transform="scale(0.015625)"/>
       <path id="DejaVuSans-20" transform="scale(0.015625)"/>
       <path d="M 3122 3366 
L 3122 2828 
Q 2878 2963 2633 3030 
Q 2388 3097 2138 3097 
Q 1578 3097 1268 2742 
Q 959 2388 959 1747 
Q 959 1106 1268 751 
Q 1578 397 2138 397 
Q 2388 397 2633 464 
Q 2878 531 3122 666 
L 3122 134 
Q 2881 22 2623 -34 
Q 2366 -91 2075 -91 
Q 1284 -91 818 406 
Q 353 903 353 1747 
Q 353 2603 823 3093 
Q 1294 3584 2113 3584 
Q 2378 3584 2631 3529 
Q 2884 3475 3122 3366 
z
" id="DejaVuSans-441" transform="scale(0.015625)"/>
      </defs>
      <use xlink:href="#DejaVuSans-412"/>
      <use x="68.603516" xlink:href="#DejaVuSans-440"/>
      <use x="132.080078" xlink:href="#DejaVuSans-435"/>
      <use x="193.603516" xlink:href="#DejaVuSans-43c"/>
      <use x="269.042969" xlink:href="#DejaVuSans-44f"/>
      <use x="329.199219" xlink:href="#DejaVuSans-2c"/>
      <use x="360.986328" xlink:href="#DejaVuSans-20"/>
      <use x="392.773438" xlink:href="#DejaVuSans-441"/>
     </g>
    </g>
   </g>
   <g id="matplotlib.axis_2">
    <g id="ytick_1">
     <g id="line2d_55">
      <path clip-path="url(#pe6dd29e6de)" d="M 144 576.72 
L 1036.8 576.72 
" style="fill:none;stroke:#000000;stroke-dasharray:0.3,0.495;stroke-dashoffset:0;stroke-width:0.3;"/>
     </g>
     <g id="line2d_56">
      <defs>
       <path d="M 0 0 
L -3.5 0 
" id="m659331014a" style="stroke:#000000;stroke-width:0.8;"/>
      </defs>
      <g>
       <use style="stroke:#000000;stroke-width:0.8;" x="144" xlink:href="#m659331014a" y="576.72"/>
      </g>
     </g>
     <g id="text_16">
      <!-- 0.0 -->
      <g transform="translate(121.096875 580.519219)scale(0.1 -0.1)">
       <defs>
        <path d="M 684 794 
L 1344 794 
L 1344 0 
L 684 0 
L 684 794 
z
" id="DejaVuSans-2e" transform="scale(0.015625)"/>
       </defs>
       <use xlink:href="#DejaVuSans-30"/>
       <use x="63.623047" xlink:href="#DejaVuSans-2e"/>
       <use x="95.410156" xlink:href="#DejaVuSans-30"/>
      </g>
     </g>
    </g>
    <g id="ytick_2">
     <g id="line2d_57">
      <path clip-path="url(#pe6dd29e6de)" d="M 144 505.44 
L 1036.8 505.44 
" style="fill:none;stroke:#000000;stroke-dasharray:0.3,0.495;stroke-dashoffset:0;stroke-width:0.3;"/>
     </g>
     <g id="line2d_58">
      <g>
       <use style="stroke:#000000;stroke-width:0.8;" x="144" xlink:href="#m659331014a" y="505.44"/>
      </g>
     </g>
     <g id="text_17">
      <!-- 0.5 -->
      <g transform="translate(121.096875 509.239219)scale(0.1 -0.1)">
       <use xlink:href="#DejaVuSans-30"/>
       <use x="63.623047" xlink:href="#DejaVuSans-2e"/>
       <use x="95.410156" xlink:href="#DejaVuSans-35"/>
      </g>
     </g>
    </g>
    <g id="ytick_3">
     <g id="line2d_59">
      <path clip-path="url(#pe6dd29e6de)" d="M 144 434.16 
L 1036.8 434.16 
" style="fill:none;stroke:#000000;stroke-dasharray:0.3,0.495;stroke-dashoffset:0;stroke-width:0.3;"/>
     </g>
     <g id="line2d_60">
      <g>
       <use style="stroke:#000000;stroke-width:0.8;" x="144" xlink:href="#m659331014a" y="434.16"/>
      </g>
     </g>
     <g id="text_18">
      <!-- 1.0 -->
      <g transform="translate(121.096875 437.959219)scale(0.1 -0.1)">
       <use xlink:href="#DejaVuSans-31"/>
       <use x="63.623047" xlink:href="#DejaVuSans-2e"/>
       <use x="95.410156" xlink:href="#DejaVuSans-30"/>
      </g>
     </g>
    </g>
    <g id="ytick_4">
     <g id="line2d_61">
      <path clip-path="url(#pe6dd29e6de)" d="M 144 362.88 
L 1036.8 362.88 
" style="fill:none;stroke:#000000;stroke-dasharray:0.3,0.495;stroke-dashoffset:0;stroke-width:0.3;"/>
     </g>
     <g id="line2d_62">
      <g>
       <use style="stroke:#000000;stroke-width:0.8;" x="144" xlink:href="#m659331014a" y="362.88"/>
      </g>
     </g>
     <g id="text_19">
      <!-- 1.5 -->
      <g transform="translate(121.096875 366.679219)scale(0.1 -0.1)">
       <use xlink:href="#DejaVuSans-31"/>
       <use x="63.623047" xlink:href="#DejaVuSans-2e"/>
       <use x="95.410156" xlink:href="#DejaVuSans-35"/>
      </g>
     </g>
    </g>
    <g id="ytick_5">
     <g id="line2d_63">
      <path clip-path="url(#pe6dd29e6de)" d="M 144 291.6 
L 1036.8 291.6 
" style="fill:none;stroke:#000000;stroke-dasharray:0.3,0.495;stroke-dashoffset:0;stroke-width:0.3;"/>
     </g>
     <g id="line2d_64">
      <g>
       <use style="stroke:#000000;stroke-width:0.8;" x="144" xlink:href="#m659331014a" y="291.6"/>
      </g>
     </g>
     <g id="text_20">
      <!-- 2.0 -->
      <g transform="translate(121.096875 295.399219)scale(0.1 -0.1)">
       <use xlink:href="#DejaVuSans-32"/>
       <use x="63.623047" xlink:href="#DejaVuSans-2e"/>
       <use x="95.410156" xlink:href="#DejaVuSans-30"/>
      </g>
     </g>
    </g>
    <g id="ytick_6">
     <g id="line2d_65">
      <path clip-path="url(#pe6dd29e6de)" d="M 144 220.32 
L 1036.8 220.32 
" style="fill:none;stroke:#000000;stroke-dasharray:0.3,0.495;stroke-dashoffset:0;stroke-width:0.3;"/>
     </g>
     <g id="line2d_66">
      <g>
       <use style="stroke:#000000;stroke-width:0.8;" x="144" xlink:href="#m659331014a" y="220.32"/>
      </g>
     </g>
     <g id="text_21">
      <!-- 2.5 -->
      <g transform="translate(121.096875 224.119219)scale(0.1 -0.1)">
       <use xlink:href="#DejaVuSans-32"/>
       <use x="63.623047" xlink:href="#DejaVuSans-2e"/>
       <use x="95.410156" xlink:href="#DejaVuSans-35"/>
      </g>
     </g>
    </g>
    <g id="ytick_7">
     <g id="line2d_67">
      <path clip-path="url(#pe6dd29e6de)" d="M 144 149.04 
L 1036.8 149.04 
" style="fill:none;stroke:#000000;stroke-dasharray:0.3,0.495;stroke-dashoffset:0;stroke-width:0.3;"/>
     </g>
     <g id="line2d_68">
      <g>
       <use style="stroke:#000000;stroke-width:0.8;" x="144" xlink:href="#m659331014a" y="149.04"/>
      </g>
     </g>
     <g id="text_22">
      <!-- 3.0 -->
      <g transform="translate(121.096875 152.839219)scale(0.1 -0.1)">
       <use xlink:href="#DejaVuSans-33"/>
       <use x="63.623047" xlink:href="#DejaVuSans-2e"/>
       <use x="95.410156" xlink:href="#DejaVuSans-30"/>
      </g>
     </g>
    </g>
    <g id="ytick_8">
     <g id="line2d_69">
      <path clip-path="url(#pe6dd29e6de)" d="M 144 77.76 
L 1036.8 77.76 
" style="fill:none;stroke:#000000;stroke-dasharray:0.3,0.495;stroke-dashoffset:0;stroke-width:0.3;"/>
     </g>
     <g id="line2d_70">
      <g>
       <use style="stroke:#000000;stroke-width:0.8;" x="144" xlink:href="#m659331014a" y="77.76"/>
      </g>
     </g>
     <g id="text_23">
      <!-- 3.5 -->
      <g transform="translate(121.096875 81.559219)scale(0.1 -0.1)">
       <use xlink:href="#DejaVuSans-33"/>
       <use x="63.623047" xlink:href="#DejaVuSans-2e"/>
       <use x="95.410156" xlink:href="#DejaVuSans-35"/>
      </g>
     </g>
    </g>
    <g id="ytick_9">
     <g id="line2d_71">
      <path clip-path="url(#pe6dd29e6de)" d="M 144 541.08 
L 1036.8 541.08 
" style="fill:none;stroke:#000000;stroke-dasharray:0.3,0.495;stroke-dashoffset:0;stroke-width:0.3;"/>
     </g>
     <g id="line2d_72">
      <defs>
       <path d="M 0 0 
L -2 0 
" id="mfaf5476efa" style="stroke:#000000;stroke-width:0.6;"/>
      </defs>
      <g>
       <use style="stroke:#000000;stroke-width:0.6;" x="144" xlink:href="#mfaf5476efa" y="541.08"/>
      </g>
     </g>
    </g>
    <g id="ytick_10">
     <g id="line2d_73">
      <path clip-path="url(#pe6dd29e6de)" d="M 144 469.8 
L 1036.8 469.8 
" style="fill:none;stroke:#000000;stroke-dasharray:0.3,0.495;stroke-dashoffset:0;stroke-width:0.3;"/>
     </g>
     <g id="line2d_74">
      <g>
       <use style="stroke:#000000;stroke-width:0.6;" x="144" xlink:href="#mfaf5476efa" y="469.8"/>
      </g>
     </g>
    </g>
    <g id="ytick_11">
     <g id="line2d_75">
      <path clip-path="url(#pe6dd29e6de)" d="M 144 398.52 
L 1036.8 398.52 
" style="fill:none;stroke:#000000;stroke-dasharray:0.3,0.495;stroke-dashoffset:0;stroke-width:0.3;"/>
     </g>
     <g id="line2d_76">
      <g>
       <use style="stroke:#000000;stroke-width:0.6;" x="144" xlink:href="#mfaf5476efa" y="398.52"/>
      </g>
     </g>
    </g>
    <g id="ytick_12">
     <g id="line2d_77">
      <path clip-path="url(#pe6dd29e6de)" d="M 144 327.24 
L 1036.8 327.24 
" style="fill:none;stroke:#000000;stroke-dasharray:0.3,0.495;stroke-dashoffset:0;stroke-width:0.3;"/>
     </g>
     <g id="line2d_78">
      <g>
       <use style="stroke:#000000;stroke-width:0.6;" x="144" xlink:href="#mfaf5476efa" y="327.24"/>
      </g>
     </g>
    </g>
    <g id="ytick_13">
     <g id="line2d_79">
      <path clip-path="url(#pe6dd29e6de)" d="M 144 255.96 
L 1036.8 255.96 
" style="fill:none;stroke:#000000;stroke-dasharray:0.3,0.495;stroke-dashoffset:0;stroke-width:0.3;"/>
     </g>
     <g id="line2d_80">
      <g>
       <use style="stroke:#000000;stroke-width:0.6;" x="144" xlink:href="#mfaf5476efa" y="255.96"/>
      </g>
     </g>
    </g>
    <g id="ytick_14">
     <g id="line2d_81">
      <path clip-path="url(#pe6dd29e6de)" d="M 144 184.68 
L 1036.8 184.68 
" style="fill:none;stroke:#000000;stroke-dasharray:0.3,0.495;stroke-dashoffset:0;stroke-width:0.3;"/>
     </g>
     <g id="line2d_82">
      <g>
       <use style="stroke:#000000;stroke-width:0.6;" x="144" xlink:href="#mfaf5476efa" y="184.68"/>
      </g>
     </g>
    </g>
    <g id="ytick_15">
     <g id="line2d_83">
      <path clip-path="url(#pe6dd29e6de)" d="M 144 113.4 
L 1036.8 113.4 
" style="fill:none;stroke:#000000;stroke-dasharray:0.3,0.495;stroke-dashoffset:0;stroke-width:0.3;"/>
     </g>
     <g id="line2d_84">
      <g>
       <use style="stroke:#000000;stroke-width:0.6;" x="144" xlink:href="#mfaf5476efa" y="113.4"/>
      </g>
     </g>
    </g>
    <g id="text_24">
     <!-- Напряжение, В -->
     <g transform="translate(114.185312 383.323125)rotate(-90)scale(0.14 -0.14)">
      <defs>
       <path d="M 628 4666 
L 1259 4666 
L 1259 2753 
L 3553 2753 
L 3553 4666 
L 4184 4666 
L 4184 0 
L 3553 0 
L 3553 2222 
L 1259 2222 
L 1259 0 
L 628 0 
L 628 4666 
z
" id="DejaVuSans-41d" transform="scale(0.015625)"/>
       <path d="M 2194 1759 
Q 1497 1759 1228 1600 
Q 959 1441 959 1056 
Q 959 750 1161 570 
Q 1363 391 1709 391 
Q 2188 391 2477 730 
Q 2766 1069 2766 1631 
L 2766 1759 
L 2194 1759 
z
M 3341 1997 
L 3341 0 
L 2766 0 
L 2766 531 
Q 2569 213 2275 61 
Q 1981 -91 1556 -91 
Q 1019 -91 701 211 
Q 384 513 384 1019 
Q 384 1609 779 1909 
Q 1175 2209 1959 2209 
L 2766 2209 
L 2766 2266 
Q 2766 2663 2505 2880 
Q 2244 3097 1772 3097 
Q 1472 3097 1187 3025 
Q 903 2953 641 2809 
L 641 3341 
Q 956 3463 1253 3523 
Q 1550 3584 1831 3584 
Q 2591 3584 2966 3190 
Q 3341 2797 3341 1997 
z
" id="DejaVuSans-430" transform="scale(0.015625)"/>
       <path d="M 3603 3500 
L 3603 0 
L 3025 0 
L 3025 3041 
L 1159 3041 
L 1159 0 
L 581 0 
L 581 3500 
L 3603 3500 
z
" id="DejaVuSans-43f" transform="scale(0.015625)"/>
       <path d="M 2597 3500 
L 3169 3500 
L 3169 1856 
L 4697 3500 
L 5366 3500 
L 4109 2153 
L 5547 0 
L 4931 0 
L 3753 1769 
L 3169 1141 
L 3169 0 
L 2597 0 
L 2597 1141 
L 2013 1769 
L 834 0 
L 219 0 
L 1656 2153 
L 400 3500 
L 1069 3500 
L 2597 1856 
L 2597 3500 
z
" id="DejaVuSans-436" transform="scale(0.015625)"/>
       <path d="M 581 3500 
L 1159 3500 
L 1159 2072 
L 3025 2072 
L 3025 3500 
L 3603 3500 
L 3603 0 
L 3025 0 
L 3025 1613 
L 1159 1613 
L 1159 0 
L 581 0 
L 581 3500 
z
" id="DejaVuSans-43d" transform="scale(0.015625)"/>
       <path d="M 3578 3500 
L 3578 0 
L 3006 0 
L 3006 2809 
L 1319 0 
L 581 0 
L 581 3500 
L 1153 3500 
L 1153 697 
L 2838 3500 
L 3578 3500 
z
" id="DejaVuSans-438" transform="scale(0.015625)"/>
      </defs>
      <use xlink:href="#DejaVuSans-41d"/>
      <use x="75.195312" xlink:href="#DejaVuSans-430"/>
      <use x="136.474609" xlink:href="#DejaVuSans-43f"/>
      <use x="201.855469" xlink:href="#DejaVuSans-440"/>
      <use x="265.332031" xlink:href="#DejaVuSans-44f"/>
      <use x="325.488281" xlink:href="#DejaVuSans-436"/>
      <use x="415.576172" xlink:href="#DejaVuSans-435"/>
      <use x="477.099609" xlink:href="#DejaVuSans-43d"/>
      <use x="542.480469" xlink:href="#DejaVuSans-438"/>
      <use x="607.470703" xlink:href="#DejaVuSans-435"/>
      <use x="668.994141" xlink:href="#DejaVuSans-2c"/>
      <use x="700.78125" xlink:href="#DejaVuSans-20"/>
      <use x="732.568359" xlink:href="#DejaVuSans-412"/>
     </g>
    </g>
   </g>
   <g id="line2d_85">
    <path clip-path="url(#pe6dd29e6de)" d="M 144 575.15184 
L 144.920271 568.8792 
L 147.681083 559.47024 
L 148.601354 553.1976 
L 150.441895 546.92496 
L 151.362166 540.65232 
L 152.282437 540.65232 
L 153.202708 534.37968 
L 154.122978 534.37968 
L 155.043249 528.10704 
L 155.96352 528.10704 
L 156.883791 518.69808 
L 168.847311 477.92592 
L 169.767582 477.92592 
L 170.687852 471.65328 
L 174.368935 459.108 
L 175.289206 459.108 
L 176.209477 452.83536 
L 177.129748 452.83536 
L 184.491914 427.7448 
L 185.412185 427.7448 
L 189.093268 415.19952 
L 190.013538 415.19952 
L 193.694622 402.65424 
L 194.614892 402.65424 
L 196.455434 396.3816 
L 197.375705 396.3816 
L 199.216246 390.10896 
L 200.136517 390.10896 
L 201.977058 383.83632 
L 202.897329 383.83632 
L 204.737871 377.56368 
L 206.578412 377.56368 
L 207.498683 371.29104 
L 208.418954 371.29104 
L 209.339225 368.15472 
L 210.259495 368.15472 
L 212.100037 361.88208 
L 213.020308 361.88208 
L 213.940578 358.74576 
L 214.860849 358.74576 
L 216.701391 352.47312 
L 218.541932 352.47312 
L 220.382474 346.20048 
L 222.223015 346.20048 
L 224.063557 339.92784 
L 224.983828 339.92784 
L 225.904098 336.79152 
L 226.824369 336.79152 
L 227.74464 333.6552 
L 228.664911 333.6552 
L 229.585182 330.51888 
L 230.505452 330.51888 
L 231.425723 327.38256 
L 234.186535 327.38256 
L 235.106806 321.10992 
L 236.947348 321.10992 
L 237.867618 317.9736 
L 238.787889 317.9736 
L 239.70816 314.83728 
L 241.548702 314.83728 
L 242.468972 311.70096 
L 243.389243 311.70096 
L 244.309514 308.56464 
L 245.229785 308.56464 
L 246.150055 305.42832 
L 248.910868 305.42832 
L 250.751409 299.15568 
L 252.591951 299.15568 
L 253.512222 296.01936 
L 255.352763 296.01936 
L 256.273034 292.88304 
L 257.193305 292.88304 
L 258.113575 289.74672 
L 260.874388 289.74672 
L 261.794658 286.6104 
L 262.714929 286.6104 
L 263.6352 283.47408 
L 265.475742 283.47408 
L 266.396012 280.33776 
L 269.156825 280.33776 
L 270.997366 274.06512 
L 276.518991 274.06512 
L 278.359532 267.79248 
L 282.040615 267.79248 
L 282.960886 264.65616 
L 285.721698 264.65616 
L 286.641969 261.51984 
L 288.482511 261.51984 
L 289.402782 258.38352 
L 291.243323 258.38352 
L 292.163594 255.2472 
L 295.844677 255.2472 
L 296.764948 252.11088 
L 300.446031 252.11088 
L 301.366302 248.97456 
L 305.047385 248.97456 
L 305.967655 245.83824 
L 309.648738 245.83824 
L 310.569009 242.70192 
L 312.409551 242.70192 
L 313.329822 239.5656 
L 314.250092 242.70192 
L 315.170363 239.5656 
L 317.931175 239.5656 
L 318.851446 236.42928 
L 325.293342 236.42928 
L 326.213612 233.29296 
L 330.814966 233.29296 
L 331.735237 230.15664 
L 336.336591 230.15664 
L 337.256862 227.02032 
L 340.937945 227.02032 
L 341.858215 223.884 
L 351.981194 223.884 
L 352.901465 220.74768 
L 360.263631 220.74768 
L 361.183902 217.61136 
L 362.104172 220.74768 
L 363.024443 217.61136 
L 367.625797 217.61136 
L 368.546068 214.47504 
L 369.466338 217.61136 
L 370.386609 214.47504 
L 378.669046 214.47504 
L 379.589317 211.33872 
L 387.871754 211.33872 
L 388.792025 208.2024 
L 397.074462 208.2024 
L 397.994732 205.06608 
L 398.915003 208.2024 
L 399.835274 208.2024 
L 400.755545 205.06608 
L 409.037982 205.06608 
L 409.958252 201.92976 
L 410.878523 205.06608 
L 411.798794 205.06608 
L 412.719065 201.92976 
L 413.639335 205.06608 
L 414.559606 205.06608 
L 415.479877 201.92976 
L 422.842043 201.92976 
L 423.762314 198.79344 
L 424.682585 201.92976 
L 425.602855 201.92976 
L 426.523126 198.79344 
L 427.443397 198.79344 
L 428.363668 201.92976 
L 431.12448 201.92976 
L 432.044751 198.79344 
L 449.529895 198.79344 
L 450.450166 195.65712 
L 451.370437 198.79344 
L 452.290708 195.65712 
L 472.536665 195.65712 
L 473.456935 192.5208 
L 474.377206 192.5208 
L 475.297477 195.65712 
L 476.217748 195.65712 
L 477.138018 192.5208 
L 478.058289 192.5208 
L 478.97856 195.65712 
L 479.898831 192.5208 
L 495.543434 192.5208 
L 495.543434 192.5208 
" style="fill:none;stroke:#008000;stroke-linecap:square;stroke-width:1.5;"/>
   </g>
   <g id="line2d_86">
    <path clip-path="url(#pe6dd29e6de)" d="M 496.463705 189.38448 
L 497.383975 195.65712 
L 498.304246 198.79344 
L 499.224517 198.79344 
L 500.144788 205.06608 
L 501.985329 211.33872 
L 502.9056 217.61136 
L 503.825871 217.61136 
L 504.746142 223.884 
L 505.666412 223.884 
L 506.586683 230.15664 
L 508.427225 236.42928 
L 509.347495 236.42928 
L 510.267766 242.70192 
L 511.188037 242.70192 
L 520.390745 274.06512 
L 521.311015 274.06512 
L 525.912369 289.74672 
L 526.83264 289.74672 
L 527.752911 296.01936 
L 528.673182 296.01936 
L 529.593452 299.15568 
L 530.513723 299.15568 
L 535.115077 314.83728 
L 536.035348 314.83728 
L 539.716431 327.38256 
L 540.636702 327.38256 
L 542.477243 333.6552 
L 543.397514 333.6552 
L 544.317785 336.79152 
L 545.238055 336.79152 
L 547.998868 346.20048 
L 548.919138 346.20048 
L 549.839409 349.3368 
L 550.75968 349.3368 
L 552.600222 355.60944 
L 553.520492 355.60944 
L 555.361034 361.88208 
L 556.281305 361.88208 
L 557.201575 365.0184 
L 558.121846 365.0184 
L 559.042117 368.15472 
L 559.962388 368.15472 
L 560.882658 371.29104 
L 561.802929 371.29104 
L 562.7232 374.42736 
L 563.643471 374.42736 
L 564.563742 377.56368 
L 565.484012 377.56368 
L 566.404283 380.7 
L 567.324554 380.7 
L 569.165095 386.97264 
L 571.005637 386.97264 
L 571.925908 390.10896 
L 572.846178 390.10896 
L 573.766449 393.24528 
L 574.68672 393.24528 
L 576.527262 399.51792 
L 578.367803 399.51792 
L 579.288074 402.65424 
L 580.208345 402.65424 
L 581.128615 405.79056 
L 582.048886 405.79056 
L 582.969157 408.92688 
L 583.889428 408.92688 
L 584.809698 412.0632 
L 586.65024 412.0632 
L 587.570511 415.19952 
L 588.490782 415.19952 
L 589.411052 418.33584 
L 590.331323 418.33584 
L 591.251594 421.47216 
L 592.171865 421.47216 
L 593.092135 424.60848 
L 595.852948 424.60848 
L 597.693489 430.88112 
L 599.534031 430.88112 
L 600.454302 434.01744 
L 601.374572 434.01744 
L 602.294843 437.15376 
L 605.055655 437.15376 
L 605.975926 440.29008 
L 606.896197 440.29008 
L 607.816468 443.4264 
L 609.657009 443.4264 
L 610.57728 446.56272 
L 611.497551 446.56272 
L 612.417822 449.69904 
L 614.258363 449.69904 
L 615.178634 452.83536 
L 617.939446 452.83536 
L 618.859717 455.97168 
L 620.700258 455.97168 
L 621.620529 459.108 
L 623.461071 459.108 
L 624.381342 462.24432 
L 627.142154 462.24432 
L 628.062425 465.38064 
L 628.982695 465.38064 
L 629.902966 468.51696 
L 632.663778 468.51696 
L 633.584049 471.65328 
L 635.424591 471.65328 
L 636.344862 474.7896 
L 637.265132 474.7896 
L 638.185403 477.92592 
L 643.707028 477.92592 
L 644.627298 481.06224 
L 646.46784 481.06224 
L 647.388111 484.19856 
L 649.228652 484.19856 
L 650.148923 487.33488 
L 653.830006 487.33488 
L 654.750277 490.4712 
L 657.511089 490.4712 
L 658.43136 493.60752 
L 660.271902 493.60752 
L 661.192172 496.74384 
L 664.873255 496.74384 
L 665.793526 499.88016 
L 669.474609 499.88016 
L 670.39488 503.01648 
L 671.315151 499.88016 
L 672.235422 503.01648 
L 674.075963 503.01648 
L 674.996234 506.1528 
L 678.677317 506.1528 
L 679.597588 509.28912 
L 683.278671 509.28912 
L 684.198942 512.42544 
L 687.880025 512.42544 
L 688.800295 515.56176 
L 694.32192 515.56176 
L 695.242191 518.69808 
L 698.923274 518.69808 
L 699.843545 521.8344 
L 703.524628 521.8344 
L 704.444898 524.97072 
L 705.365169 521.8344 
L 706.28544 524.97072 
L 709.046252 524.97072 
L 709.966523 528.10704 
L 719.169231 528.10704 
L 720.089502 531.24336 
L 726.531397 531.24336 
L 727.451668 534.37968 
L 732.053022 534.37968 
L 732.973292 537.516 
L 741.255729 537.516 
L 742.176 540.65232 
L 751.378708 540.65232 
L 752.298978 543.78864 
L 759.661145 543.78864 
L 760.581415 546.92496 
L 761.501686 543.78864 
L 762.421957 546.92496 
L 772.544935 546.92496 
L 773.465206 550.06128 
L 781.747643 550.06128 
L 782.667914 553.1976 
L 797.392246 553.1976 
L 798.312517 556.33392 
L 813.036849 556.33392 
L 813.95712 559.47024 
L 814.877391 556.33392 
L 815.797662 559.47024 
L 830.521994 559.47024 
L 831.442265 562.60656 
L 850.767951 562.60656 
L 851.688222 565.74288 
L 852.608492 562.60656 
L 855.369305 562.60656 
L 856.289575 565.74288 
L 857.209846 565.74288 
L 858.130117 562.60656 
L 859.050388 565.74288 
L 877.455803 565.74288 
L 878.376074 568.8792 
L 879.296345 565.74288 
L 886.658511 565.74288 
L 887.578782 568.8792 
L 889.419323 568.8792 
L 890.339594 565.74288 
L 891.259865 568.8792 
L 916.107175 568.8792 
L 917.027446 572.01552 
L 917.947717 568.8792 
L 919.788258 568.8792 
L 920.708529 572.01552 
L 968.562609 572.01552 
L 969.48288 575.15184 
L 969.48288 575.15184 
" style="fill:none;stroke:#ff0000;stroke-linecap:square;stroke-width:1.5;"/>
   </g>
   <g id="patch_3">
    <path d="M 144 576.72 
L 144 77.76 
" style="fill:none;stroke:#000000;stroke-linecap:square;stroke-linejoin:miter;stroke-width:0.8;"/>
   </g>
   <g id="patch_4">
    <path d="M 1036.8 576.72 
L 1036.8 77.76 
" style="fill:none;stroke:#000000;stroke-linecap:square;stroke-linejoin:miter;stroke-width:0.8;"/>
   </g>
   <g id="patch_5">
    <path d="M 144 576.72 
L 1036.8 576.72 
" style="fill:none;stroke:#000000;stroke-linecap:square;stroke-linejoin:miter;stroke-width:0.8;"/>
   </g>
   <g id="patch_6">
    <path d="M 144 77.76 
L 1036.8 77.76 
" style="fill:none;stroke:#000000;stroke-linecap:square;stroke-linejoin:miter;stroke-width:0.8;"/>
   </g>
   <g id="text_25">
    <!-- Точка максимума -->
    <g style="fill:#0000ff;" transform="translate(462.125243 153.74448)scale(0.14 -0.14)">
     <defs>
      <path d="M -19 4666 
L 3928 4666 
L 3928 4134 
L 2272 4134 
L 2272 0 
L 1638 0 
L 1638 4134 
L -19 4134 
L -19 4666 
z
" id="DejaVuSans-422" transform="scale(0.015625)"/>
      <path d="M 1959 3097 
Q 1497 3097 1228 2736 
Q 959 2375 959 1747 
Q 959 1119 1226 758 
Q 1494 397 1959 397 
Q 2419 397 2687 759 
Q 2956 1122 2956 1747 
Q 2956 2369 2687 2733 
Q 2419 3097 1959 3097 
z
M 1959 3584 
Q 2709 3584 3137 3096 
Q 3566 2609 3566 1747 
Q 3566 888 3137 398 
Q 2709 -91 1959 -91 
Q 1206 -91 779 398 
Q 353 888 353 1747 
Q 353 2609 779 3096 
Q 1206 3584 1959 3584 
z
" id="DejaVuSans-43e" transform="scale(0.015625)"/>
      <path d="M 2625 0 
L 2625 1472 
L 1553 1472 
Q 1075 1472 756 1769 
Q 469 2038 469 2613 
L 469 3500 
L 1044 3500 
L 1044 2666 
Q 1044 2300 1206 2116 
Q 1372 1931 1697 1931 
L 2625 1931 
L 2625 3500 
L 3200 3500 
L 3200 0 
L 2625 0 
z
" id="DejaVuSans-447" transform="scale(0.015625)"/>
      <path d="M 581 3500 
L 1153 3500 
L 1153 1856 
L 2775 3500 
L 3481 3500 
L 2144 2147 
L 3653 0 
L 3009 0 
L 1769 1766 
L 1153 1141 
L 1153 0 
L 581 0 
L 581 3500 
z
" id="DejaVuSans-43a" transform="scale(0.015625)"/>
      <path d="M 2059 -325 
Q 1816 -950 1584 -1140 
Q 1353 -1331 966 -1331 
L 506 -1331 
L 506 -850 
L 844 -850 
Q 1081 -850 1212 -737 
Q 1344 -625 1503 -206 
L 1606 56 
L 191 3500 
L 800 3500 
L 1894 763 
L 2988 3500 
L 3597 3500 
L 2059 -325 
z
" id="DejaVuSans-443" transform="scale(0.015625)"/>
     </defs>
     <use xlink:href="#DejaVuSans-422"/>
     <use x="61.083984" xlink:href="#DejaVuSans-43e"/>
     <use x="122.265625" xlink:href="#DejaVuSans-447"/>
     <use x="181.347656" xlink:href="#DejaVuSans-43a"/>
     <use x="241.748047" xlink:href="#DejaVuSans-430"/>
     <use x="303.027344" xlink:href="#DejaVuSans-20"/>
     <use x="334.814453" xlink:href="#DejaVuSans-43c"/>
     <use x="410.253906" xlink:href="#DejaVuSans-430"/>
     <use x="471.533203" xlink:href="#DejaVuSans-43a"/>
     <use x="531.933594" xlink:href="#DejaVuSans-441"/>
     <use x="586.914062" xlink:href="#DejaVuSans-438"/>
     <use x="651.904297" xlink:href="#DejaVuSans-43c"/>
     <use x="727.34375" xlink:href="#DejaVuSans-443"/>
     <use x="786.523438" xlink:href="#DejaVuSans-43c"/>
     <use x="861.962891" xlink:href="#DejaVuSans-430"/>
    </g>
   </g>
   <g id="text_26">
    <!-- Время зарядки: 5.13 s -->
    <g style="fill:#008000;" transform="translate(265.290314 383.05224)scale(0.14 -0.14)">
     <defs>
      <path d="M 2206 1888 
Q 2594 1813 2809 1584 
Q 3025 1356 3025 1019 
Q 3025 478 2622 193 
Q 2219 -91 1475 -91 
Q 1225 -91 961 -47 
Q 697 -3 416 84 
L 416 619 
Q 638 503 903 445 
Q 1169 388 1459 388 
Q 1931 388 2195 563 
Q 2459 738 2459 1019 
Q 2459 1294 2225 1461 
Q 1991 1628 1563 1628 
L 1100 1628 
L 1100 2103 
L 1584 2103 
Q 1947 2103 2158 2242 
Q 2369 2381 2369 2600 
Q 2369 2800 2151 2944 
Q 1934 3088 1563 3088 
Q 1341 3088 1089 3047 
Q 838 3006 534 2916 
L 534 3438 
Q 841 3513 1106 3550 
Q 1372 3588 1609 3588 
Q 2222 3588 2576 3342 
Q 2931 3097 2931 2656 
Q 2931 2366 2743 2164 
Q 2556 1963 2206 1888 
z
" id="DejaVuSans-437" transform="scale(0.015625)"/>
      <path d="M 1384 459 
L 3053 459 
L 3053 3041 
L 1844 3041 
L 1844 2603 
Q 1844 1316 1475 628 
L 1384 459 
z
M 550 459 
Q 834 584 959 850 
Q 1266 1509 1266 2838 
L 1266 3500 
L 3631 3500 
L 3631 459 
L 4091 459 
L 4091 -884 
L 3631 -884 
L 3631 0 
L 794 0 
L 794 -884 
L 334 -884 
L 334 459 
L 550 459 
z
" id="DejaVuSans-434" transform="scale(0.015625)"/>
      <path d="M 750 794 
L 1409 794 
L 1409 0 
L 750 0 
L 750 794 
z
M 750 3309 
L 1409 3309 
L 1409 2516 
L 750 2516 
L 750 3309 
z
" id="DejaVuSans-3a" transform="scale(0.015625)"/>
      <path d="M 2834 3397 
L 2834 2853 
Q 2591 2978 2328 3040 
Q 2066 3103 1784 3103 
Q 1356 3103 1142 2972 
Q 928 2841 928 2578 
Q 928 2378 1081 2264 
Q 1234 2150 1697 2047 
L 1894 2003 
Q 2506 1872 2764 1633 
Q 3022 1394 3022 966 
Q 3022 478 2636 193 
Q 2250 -91 1575 -91 
Q 1294 -91 989 -36 
Q 684 19 347 128 
L 347 722 
Q 666 556 975 473 
Q 1284 391 1588 391 
Q 1994 391 2212 530 
Q 2431 669 2431 922 
Q 2431 1156 2273 1281 
Q 2116 1406 1581 1522 
L 1381 1569 
Q 847 1681 609 1914 
Q 372 2147 372 2553 
Q 372 3047 722 3315 
Q 1072 3584 1716 3584 
Q 2034 3584 2315 3537 
Q 2597 3491 2834 3397 
z
" id="DejaVuSans-73" transform="scale(0.015625)"/>
     </defs>
     <use xlink:href="#DejaVuSans-412"/>
     <use x="68.603516" xlink:href="#DejaVuSans-440"/>
     <use x="132.080078" xlink:href="#DejaVuSans-435"/>
     <use x="193.603516" xlink:href="#DejaVuSans-43c"/>
     <use x="269.042969" xlink:href="#DejaVuSans-44f"/>
     <use x="329.199219" xlink:href="#DejaVuSans-20"/>
     <use x="360.986328" xlink:href="#DejaVuSans-437"/>
     <use x="414.160156" xlink:href="#DejaVuSans-430"/>
     <use x="475.439453" xlink:href="#DejaVuSans-440"/>
     <use x="538.916016" xlink:href="#DejaVuSans-44f"/>
     <use x="599.072266" xlink:href="#DejaVuSans-434"/>
     <use x="668.212891" xlink:href="#DejaVuSans-43a"/>
     <use x="728.613281" xlink:href="#DejaVuSans-438"/>
     <use x="793.603516" xlink:href="#DejaVuSans-3a"/>
     <use x="827.294922" xlink:href="#DejaVuSans-20"/>
     <use x="859.082031" xlink:href="#DejaVuSans-35"/>
     <use x="922.705078" xlink:href="#DejaVuSans-2e"/>
     <use x="954.492188" xlink:href="#DejaVuSans-31"/>
     <use x="1018.115234" xlink:href="#DejaVuSans-33"/>
     <use x="1081.738281" xlink:href="#DejaVuSans-20"/>
     <use x="1113.525391" xlink:href="#DejaVuSans-73"/>
    </g>
   </g>
   <g id="text_27">
    <!-- Время разрядки: 6.89 s -->
    <g style="fill:#ff0000;" transform="translate(678.031754 383.05224)scale(0.14 -0.14)">
     <use xlink:href="#DejaVuSans-412"/>
     <use x="68.603516" xlink:href="#DejaVuSans-440"/>
     <use x="132.080078" xlink:href="#DejaVuSans-435"/>
     <use x="193.603516" xlink:href="#DejaVuSans-43c"/>
     <use x="269.042969" xlink:href="#DejaVuSans-44f"/>
     <use x="329.199219" xlink:href="#DejaVuSans-20"/>
     <use x="360.986328" xlink:href="#DejaVuSans-440"/>
     <use x="424.462891" xlink:href="#DejaVuSans-430"/>
     <use x="485.742188" xlink:href="#DejaVuSans-437"/>
     <use x="538.916016" xlink:href="#DejaVuSans-440"/>
     <use x="602.392578" xlink:href="#DejaVuSans-44f"/>
     <use x="662.548828" xlink:href="#DejaVuSans-434"/>
     <use x="731.689453" xlink:href="#DejaVuSans-43a"/>
     <use x="792.089844" xlink:href="#DejaVuSans-438"/>
     <use x="857.080078" xlink:href="#DejaVuSans-3a"/>
     <use x="890.771484" xlink:href="#DejaVuSans-20"/>
     <use x="922.558594" xlink:href="#DejaVuSans-36"/>
     <use x="986.181641" xlink:href="#DejaVuSans-2e"/>
     <use x="1017.96875" xlink:href="#DejaVuSans-38"/>
     <use x="1081.591797" xlink:href="#DejaVuSans-39"/>
     <use x="1145.214844" xlink:href="#DejaVuSans-20"/>
     <use x="1177.001953" xlink:href="#DejaVuSans-73"/>
    </g>
   </g>
   <g id="text_28">
    <!-- Зарядка-разрядка RC-цепи -->
    <g transform="translate(461.657812 71.76)scale(0.18 -0.18)">
     <defs>
      <path d="M 1828 4750 
Q 2597 4750 3084 4423 
Q 3572 4097 3572 3541 
Q 3572 3153 3350 2886 
Q 3128 2619 2719 2516 
Q 3172 2419 3426 2112 
Q 3681 1806 3681 1356 
Q 3681 638 3126 273 
Q 2572 -91 1828 -91 
Q 1447 -91 1003 12 
Q 559 116 422 203 
L 422 853 
Q 900 575 1164 508 
Q 1428 441 1816 441 
Q 2403 441 2728 666 
Q 3053 891 3053 1356 
Q 3053 1769 2764 2001 
Q 2475 2234 1866 2234 
L 1228 2234 
L 1228 2753 
L 1891 2753 
Q 2450 2753 2697 2939 
Q 2944 3125 2944 3475 
Q 2944 3834 2689 4026 
Q 2434 4219 1816 4219 
Q 1397 4219 1253 4181 
Q 1109 4144 469 3903 
L 469 4519 
Q 822 4644 1190 4697 
Q 1559 4750 1828 4750 
z
" id="DejaVuSans-417" transform="scale(0.015625)"/>
      <path d="M 313 2009 
L 1997 2009 
L 1997 1497 
L 313 1497 
L 313 2009 
z
" id="DejaVuSans-2d" transform="scale(0.015625)"/>
      <path d="M 2841 2188 
Q 3044 2119 3236 1894 
Q 3428 1669 3622 1275 
L 4263 0 
L 3584 0 
L 2988 1197 
Q 2756 1666 2539 1819 
Q 2322 1972 1947 1972 
L 1259 1972 
L 1259 0 
L 628 0 
L 628 4666 
L 2053 4666 
Q 2853 4666 3247 4331 
Q 3641 3997 3641 3322 
Q 3641 2881 3436 2590 
Q 3231 2300 2841 2188 
z
M 1259 4147 
L 1259 2491 
L 2053 2491 
Q 2509 2491 2742 2702 
Q 2975 2913 2975 3322 
Q 2975 3731 2742 3939 
Q 2509 4147 2053 4147 
L 1259 4147 
z
" id="DejaVuSans-52" transform="scale(0.015625)"/>
      <path d="M 4122 4306 
L 4122 3641 
Q 3803 3938 3442 4084 
Q 3081 4231 2675 4231 
Q 1875 4231 1450 3742 
Q 1025 3253 1025 2328 
Q 1025 1406 1450 917 
Q 1875 428 2675 428 
Q 3081 428 3442 575 
Q 3803 722 4122 1019 
L 4122 359 
Q 3791 134 3420 21 
Q 3050 -91 2638 -91 
Q 1578 -91 968 557 
Q 359 1206 359 2328 
Q 359 3453 968 4101 
Q 1578 4750 2638 4750 
Q 3056 4750 3426 4639 
Q 3797 4528 4122 4306 
z
" id="DejaVuSans-43" transform="scale(0.015625)"/>
      <path d="M 3603 0 
L 581 0 
L 581 3500 
L 1159 3500 
L 1159 459 
L 3025 459 
L 3025 3500 
L 3603 3500 
L 3603 459 
L 4063 459 
L 4063 -884 
L 3603 -884 
L 3603 0 
z
" id="DejaVuSans-446" transform="scale(0.015625)"/>
     </defs>
     <use xlink:href="#DejaVuSans-417"/>
     <use x="64.111328" xlink:href="#DejaVuSans-430"/>
     <use x="125.390625" xlink:href="#DejaVuSans-440"/>
     <use x="188.867188" xlink:href="#DejaVuSans-44f"/>
     <use x="249.023438" xlink:href="#DejaVuSans-434"/>
     <use x="318.164062" xlink:href="#DejaVuSans-43a"/>
     <use x="378.564453" xlink:href="#DejaVuSans-430"/>
     <use x="439.84375" xlink:href="#DejaVuSans-2d"/>
     <use x="475.927734" xlink:href="#DejaVuSans-440"/>
     <use x="539.404297" xlink:href="#DejaVuSans-430"/>
     <use x="600.683594" xlink:href="#DejaVuSans-437"/>
     <use x="653.857422" xlink:href="#DejaVuSans-440"/>
     <use x="717.333984" xlink:href="#DejaVuSans-44f"/>
     <use x="777.490234" xlink:href="#DejaVuSans-434"/>
     <use x="846.630859" xlink:href="#DejaVuSans-43a"/>
     <use x="907.03125" xlink:href="#DejaVuSans-430"/>
     <use x="968.310547" xlink:href="#DejaVuSans-20"/>
     <use x="1000.097656" xlink:href="#DejaVuSans-52"/>
     <use x="1064.580078" xlink:href="#DejaVuSans-43"/>
     <use x="1134.404297" xlink:href="#DejaVuSans-2d"/>
     <use x="1170.488281" xlink:href="#DejaVuSans-446"/>
     <use x="1238.554688" xlink:href="#DejaVuSans-435"/>
     <use x="1300.078125" xlink:href="#DejaVuSans-43f"/>
     <use x="1365.458984" xlink:href="#DejaVuSans-438"/>
    </g>
   </g>
   <g id="legend_1">
    <g id="patch_7">
     <path d="M 896.125 137.53 
L 1025.6 137.53 
Q 1028.8 137.53 1028.8 134.33 
L 1028.8 88.96 
Q 1028.8 85.76 1025.6 85.76 
L 896.125 85.76 
Q 892.925 85.76 892.925 88.96 
L 892.925 134.33 
Q 892.925 137.53 896.125 137.53 
z
" style="fill:#ffffff;opacity:0.8;stroke:#cccccc;stroke-linejoin:miter;"/>
    </g>
    <g id="line2d_87">
     <path d="M 899.325 98.7175 
L 931.325 98.7175 
" style="fill:none;stroke:#008000;stroke-linecap:square;stroke-width:1.5;"/>
    </g>
    <g id="line2d_88"/>
    <g id="text_29">
     <!-- Зарядка -->
     <g transform="translate(944.125 104.3175)scale(0.16 -0.16)">
      <use xlink:href="#DejaVuSans-417"/>
      <use x="64.111328" xlink:href="#DejaVuSans-430"/>
      <use x="125.390625" xlink:href="#DejaVuSans-440"/>
      <use x="188.867188" xlink:href="#DejaVuSans-44f"/>
      <use x="249.023438" xlink:href="#DejaVuSans-434"/>
      <use x="318.164062" xlink:href="#DejaVuSans-43a"/>
      <use x="378.564453" xlink:href="#DejaVuSans-430"/>
     </g>
    </g>
    <g id="line2d_89">
     <path d="M 899.325 122.2025 
L 931.325 122.2025 
" style="fill:none;stroke:#ff0000;stroke-linecap:square;stroke-width:1.5;"/>
    </g>
    <g id="line2d_90"/>
    <g id="text_30">
     <!-- Разрядка -->
     <g transform="translate(944.125 127.8025)scale(0.16 -0.16)">
      <defs>
       <path d="M 1259 4147 
L 1259 2394 
L 2053 2394 
Q 2494 2394 2734 2622 
Q 2975 2850 2975 3272 
Q 2975 3691 2734 3919 
Q 2494 4147 2053 4147 
L 1259 4147 
z
M 628 4666 
L 2053 4666 
Q 2838 4666 3239 4311 
Q 3641 3956 3641 3272 
Q 3641 2581 3239 2228 
Q 2838 1875 2053 1875 
L 1259 1875 
L 1259 0 
L 628 0 
L 628 4666 
z
" id="DejaVuSans-420" transform="scale(0.015625)"/>
      </defs>
      <use xlink:href="#DejaVuSans-420"/>
      <use x="60.302734" xlink:href="#DejaVuSans-430"/>
      <use x="121.582031" xlink:href="#DejaVuSans-437"/>
      <use x="174.755859" xlink:href="#DejaVuSans-440"/>
      <use x="238.232422" xlink:href="#DejaVuSans-44f"/>
      <use x="298.388672" xlink:href="#DejaVuSans-434"/>
      <use x="367.529297" xlink:href="#DejaVuSans-43a"/>
      <use x="427.929688" xlink:href="#DejaVuSans-430"/>
     </g>
    </g>
   </g>
  </g>
 </g>
 <defs>
  <clipPath id="pe6dd29e6de">
   <rect height="498.96" width="892.8" x="144" y="77.76"/>
  </clipPath>
 </defs>
</svg>
